<svg width="40" height="40" viewBox="0 0 40 40" fill="none" xmlns="http://www.w3.org/2000/svg">
<g opacity="0.8">
<rect x="7.81152" y="7.53979" width="24.2286" height="24.233" rx="10" fill="black"/>
<path fill-rule="evenodd" clip-rule="evenodd" d="M3.77344 19.6563C3.77344 12.0407 3.77344 8.23287 6.13815 5.86612C8.50609 3.50098 12.3116 3.50098 19.9258 3.50098C27.5401 3.50098 31.3472 3.50098 33.7119 5.86612C36.0782 8.23449 36.0782 12.0407 36.0782 19.6563C36.0782 27.2719 36.0782 31.0797 33.7119 33.4449C31.3488 35.8116 27.5401 35.8116 19.9258 35.8116C12.3116 35.8116 8.50447 35.8116 6.13815 33.4449C3.77344 31.0813 3.77344 27.2719 3.77344 19.6563ZM19.9258 10.367C20.2471 10.367 20.5552 10.4946 20.7824 10.7219C21.0096 10.9491 21.1372 11.2573 21.1372 11.5786V19.9632L23.9155 17.1845C24.0264 17.0655 24.1601 16.97 24.3087 16.9038C24.4573 16.8376 24.6177 16.802 24.7804 16.7991C24.943 16.7962 25.1046 16.8261 25.2555 16.8871C25.4063 16.948 25.5433 17.0387 25.6584 17.1538C25.7734 17.2688 25.8641 17.4059 25.925 17.5568C25.9859 17.7076 26.0159 17.8692 26.013 18.0319C26.0101 18.1946 25.9745 18.355 25.9083 18.5037C25.8421 18.6523 25.7466 18.7861 25.6276 18.897L20.7819 23.7436C20.5548 23.9705 20.2468 24.0979 19.9258 24.0979C19.6048 24.0979 19.2969 23.9705 19.0697 23.7436L14.224 18.897C14.105 18.7861 14.0095 18.6523 13.9433 18.5037C13.8771 18.355 13.8415 18.1946 13.8386 18.0319C13.8358 17.8692 13.8657 17.7076 13.9266 17.5568C13.9876 17.4059 14.0782 17.2688 14.1933 17.1538C14.3083 17.0387 14.4453 16.948 14.5962 16.8871C14.747 16.8261 14.9086 16.7962 15.0713 16.7991C15.2339 16.802 15.3943 16.8376 15.5429 16.9038C15.6915 16.97 15.8253 17.0655 15.9362 17.1845L18.7144 19.9632V11.5786C18.7144 11.2573 18.842 10.9491 19.0692 10.7219C19.2964 10.4946 19.6045 10.367 19.9258 10.367ZM13.4649 26.5223C13.1436 26.5223 12.8354 26.65 12.6083 26.8772C12.3811 27.1044 12.2534 27.4126 12.2534 27.734C12.2534 28.0553 12.3811 28.3635 12.6083 28.5907C12.8354 28.818 13.1436 28.9456 13.4649 28.9456H26.3868C26.7081 28.9456 27.0162 28.818 27.2434 28.5907C27.4706 28.3635 27.5982 28.0553 27.5982 27.734C27.5982 27.4126 27.4706 27.1044 27.2434 26.8772C27.0162 26.65 26.7081 26.5223 26.3868 26.5223H13.4649Z" fill="white"/>
</g>
</svg>
