<svg width="51" height="43" viewBox="0 0 51 43" fill="none" xmlns="http://www.w3.org/2000/svg">
<g opacity="0.8">
<rect x="10.3457" y="8.0625" width="31.2727" height="26.875" rx="10" fill="black"/>
<path fill-rule="evenodd" clip-rule="evenodd" d="M5.13379 21.4999C5.13379 13.054 5.13379 8.83104 8.18601 6.20625C11.2424 3.58325 16.1543 3.58325 25.9823 3.58325C35.8102 3.58325 40.7242 3.58325 43.7764 6.20625C46.8307 8.83283 46.8307 13.054 46.8307 21.4999C46.8307 29.9458 46.8307 34.1688 43.7764 36.7918C40.7263 39.4166 35.8102 39.4166 25.9823 39.4166C16.1543 39.4166 11.2403 39.4166 8.18601 36.7918C5.13379 34.1706 5.13379 29.9458 5.13379 21.4999ZM25.9823 11.1978C26.397 11.1978 26.7947 11.3394 27.0879 11.5914C27.3812 11.8434 27.5459 12.1852 27.5459 12.5416V21.8403L31.1318 18.7587C31.275 18.6266 31.4476 18.5208 31.6394 18.4473C31.8312 18.3739 32.0383 18.3344 32.2482 18.3312C32.4582 18.328 32.6667 18.3612 32.8614 18.4288C33.0561 18.4964 33.233 18.597 33.3815 18.7246C33.53 18.8522 33.647 19.0041 33.7256 19.1715C33.8043 19.3388 33.8429 19.518 33.8392 19.6984C33.8355 19.8789 33.7896 20.0568 33.7041 20.2216C33.6186 20.3865 33.4954 20.5348 33.3418 20.6578L27.0872 26.0328C26.7941 26.2845 26.3966 26.4258 25.9823 26.4258C25.5679 26.4258 25.1705 26.2845 24.8773 26.0328L18.6228 20.6578C18.4691 20.5348 18.3459 20.3865 18.2604 20.2216C18.175 20.0568 18.129 19.8789 18.1253 19.6984C18.1216 19.518 18.1602 19.3388 18.2389 19.1715C18.3175 19.0041 18.4346 18.8522 18.5831 18.7246C18.7315 18.597 18.9084 18.4964 19.1031 18.4288C19.2978 18.3612 19.5064 18.328 19.7163 18.3312C19.9263 18.3344 20.1333 18.3739 20.3251 18.4473C20.5169 18.5208 20.6895 18.6266 20.8327 18.7587L24.4186 21.8403V12.5416C24.4186 12.1852 24.5834 11.8434 24.8766 11.5914C25.1699 11.3394 25.5676 11.1978 25.9823 11.1978ZM17.6429 29.1145C17.2282 29.1145 16.8305 29.2561 16.5372 29.5081C16.244 29.7601 16.0792 30.1019 16.0792 30.4582C16.0792 30.8146 16.244 31.1564 16.5372 31.4084C16.8305 31.6604 17.2282 31.802 17.6429 31.802H34.3217C34.7364 31.802 35.1341 31.6604 35.4273 31.4084C35.7206 31.1564 35.8853 30.8146 35.8853 30.4582C35.8853 30.1019 35.7206 29.7601 35.4273 29.5081C35.1341 29.2561 34.7364 29.1145 34.3217 29.1145H17.6429Z" fill="white"/>
</g>
</svg>
