<svg width="1320" height="566" viewBox="0 0 1320 566" fill="none" xmlns="http://www.w3.org/2000/svg">
<line y1="0.833008" x2="1320" y2="0.833008" stroke="white" stroke-opacity="0.05" stroke-dasharray="2 2"/>
<line y1="38.4331" x2="1320" y2="38.4331" stroke="white" stroke-opacity="0.05" stroke-dasharray="2 2"/>
<line y1="76.033" x2="1320" y2="76.033" stroke="white" stroke-opacity="0.05" stroke-dasharray="2 2"/>
<line y1="113.633" x2="1320" y2="113.633" stroke="white" stroke-opacity="0.05" stroke-dasharray="2 2"/>
<line y1="151.233" x2="1320" y2="151.233" stroke="white" stroke-opacity="0.05" stroke-dasharray="2 2"/>
<line y1="188.833" x2="1320" y2="188.833" stroke="white" stroke-opacity="0.05" stroke-dasharray="2 2"/>
<line y1="226.433" x2="1320" y2="226.433" stroke="white" stroke-opacity="0.05" stroke-dasharray="2 2"/>
<line y1="264.033" x2="1320" y2="264.033" stroke="white" stroke-opacity="0.05" stroke-dasharray="2 2"/>
<line y1="301.633" x2="1320" y2="301.633" stroke="white" stroke-opacity="0.05" stroke-dasharray="2 2"/>
<line y1="339.233" x2="1320" y2="339.233" stroke="white" stroke-opacity="0.05" stroke-dasharray="2 2"/>
<line y1="376.833" x2="1320" y2="376.833" stroke="white" stroke-opacity="0.05" stroke-dasharray="2 2"/>
<line y1="414.433" x2="1320" y2="414.433" stroke="white" stroke-opacity="0.05" stroke-dasharray="2 2"/>
<line y1="452.033" x2="1320" y2="452.033" stroke="white" stroke-opacity="0.05" stroke-dasharray="2 2"/>
<line y1="489.633" x2="1320" y2="489.633" stroke="white" stroke-opacity="0.05" stroke-dasharray="2 2"/>
<line y1="527.233" x2="1320" y2="527.233" stroke="white" stroke-opacity="0.05" stroke-dasharray="2 2"/>
<line y1="564.833" x2="1320" y2="564.833" stroke="white" stroke-opacity="0.05" stroke-dasharray="2 2"/>
<line x1="20.125" y1="565.333" x2="20.125" y2="1.33301" stroke="white" stroke-opacity="0.05" stroke-dasharray="2 2"/>
<line x1="61.375" y1="565.333" x2="61.375" y2="1.33301" stroke="white" stroke-opacity="0.05" stroke-dasharray="2 2"/>
<line x1="102.625" y1="565.333" x2="102.625" y2="1.33301" stroke="white" stroke-opacity="0.05" stroke-dasharray="2 2"/>
<line x1="143.875" y1="565.333" x2="143.875" y2="1.33301" stroke="white" stroke-opacity="0.05" stroke-dasharray="2 2"/>
<line x1="185.125" y1="565.333" x2="185.125" y2="1.33301" stroke="white" stroke-opacity="0.05" stroke-dasharray="2 2"/>
<line x1="226.375" y1="565.333" x2="226.375" y2="1.33301" stroke="white" stroke-opacity="0.05" stroke-dasharray="2 2"/>
<line x1="267.625" y1="565.333" x2="267.625" y2="1.33301" stroke="white" stroke-opacity="0.05" stroke-dasharray="2 2"/>
<line x1="308.875" y1="565.333" x2="308.875" y2="1.33301" stroke="white" stroke-opacity="0.05" stroke-dasharray="2 2"/>
<line x1="350.125" y1="565.333" x2="350.125" y2="1.33301" stroke="white" stroke-opacity="0.05" stroke-dasharray="2 2"/>
<line x1="391.375" y1="565.333" x2="391.375" y2="1.33301" stroke="white" stroke-opacity="0.05" stroke-dasharray="2 2"/>
<line x1="432.625" y1="565.333" x2="432.625" y2="1.33301" stroke="white" stroke-opacity="0.05" stroke-dasharray="2 2"/>
<line x1="473.875" y1="565.333" x2="473.875" y2="1.33301" stroke="white" stroke-opacity="0.05" stroke-dasharray="2 2"/>
<line x1="515.125" y1="565.333" x2="515.125" y2="1.33301" stroke="white" stroke-opacity="0.05" stroke-dasharray="2 2"/>
<line x1="556.375" y1="565.333" x2="556.375" y2="1.33301" stroke="white" stroke-opacity="0.05" stroke-dasharray="2 2"/>
<line x1="597.625" y1="565.333" x2="597.625" y2="1.33301" stroke="white" stroke-opacity="0.05" stroke-dasharray="2 2"/>
<line x1="638.875" y1="565.333" x2="638.875" y2="1.33301" stroke="white" stroke-opacity="0.05" stroke-dasharray="2 2"/>
<line x1="680.125" y1="565.333" x2="680.125" y2="1.33301" stroke="white" stroke-opacity="0.05" stroke-dasharray="2 2"/>
<line x1="721.375" y1="565.333" x2="721.375" y2="1.33301" stroke="white" stroke-opacity="0.05" stroke-dasharray="2 2"/>
<line x1="762.625" y1="565.333" x2="762.625" y2="1.33301" stroke="white" stroke-opacity="0.05" stroke-dasharray="2 2"/>
<line x1="803.875" y1="565.333" x2="803.875" y2="1.33301" stroke="white" stroke-opacity="0.05" stroke-dasharray="2 2"/>
<line x1="845.125" y1="565.333" x2="845.125" y2="1.33301" stroke="white" stroke-opacity="0.05" stroke-dasharray="2 2"/>
<line x1="886.375" y1="565.333" x2="886.375" y2="1.33301" stroke="white" stroke-opacity="0.05" stroke-dasharray="2 2"/>
<line x1="927.625" y1="565.333" x2="927.625" y2="1.33301" stroke="white" stroke-opacity="0.05" stroke-dasharray="2 2"/>
<line x1="968.875" y1="565.333" x2="968.875" y2="1.33301" stroke="white" stroke-opacity="0.05" stroke-dasharray="2 2"/>
<line x1="1010.12" y1="565.333" x2="1010.12" y2="1.33301" stroke="white" stroke-opacity="0.05" stroke-dasharray="2 2"/>
<line x1="1051.38" y1="565.333" x2="1051.38" y2="1.33301" stroke="white" stroke-opacity="0.05" stroke-dasharray="2 2"/>
<line x1="1092.62" y1="565.333" x2="1092.62" y2="1.33301" stroke="white" stroke-opacity="0.05" stroke-dasharray="2 2"/>
<line x1="1133.88" y1="565.333" x2="1133.88" y2="1.33301" stroke="white" stroke-opacity="0.05" stroke-dasharray="2 2"/>
<line x1="1175.12" y1="565.333" x2="1175.12" y2="1.33301" stroke="white" stroke-opacity="0.05" stroke-dasharray="2 2"/>
<line x1="1216.38" y1="565.333" x2="1216.38" y2="1.33301" stroke="white" stroke-opacity="0.05" stroke-dasharray="2 2"/>
<line x1="1257.62" y1="565.333" x2="1257.62" y2="1.33301" stroke="white" stroke-opacity="0.05" stroke-dasharray="2 2"/>
<line x1="1298.88" y1="565.333" x2="1298.88" y2="1.33301" stroke="white" stroke-opacity="0.05" stroke-dasharray="2 2"/>
</svg>
