<svg width="212" height="212" viewBox="0 0 212 212" fill="none" xmlns="http://www.w3.org/2000/svg">
<g clip-path="url(#clip0_2060_45133)">
<rect width="212" height="212" rx="10" fill="#1A1328" fill-opacity="0.7"/>
<line y1="26.6428" x2="923" y2="26.6428" stroke="white" stroke-opacity="0.03"/>
<line y1="53.7858" x2="923" y2="53.7858" stroke="white" stroke-opacity="0.03"/>
<line y1="80.9286" x2="923" y2="80.9286" stroke="white" stroke-opacity="0.03"/>
<line y1="108.071" x2="923" y2="108.071" stroke="white" stroke-opacity="0.03"/>
<line y1="135.214" x2="923" y2="135.214" stroke="white" stroke-opacity="0.03"/>
<line y1="162.357" x2="923" y2="162.357" stroke="white" stroke-opacity="0.03"/>
<line y1="189.5" x2="923" y2="189.5" stroke="white" stroke-opacity="0.03"/>
<line x1="31.1602" y1="296" x2="31.1602" y2="-84" stroke="white" stroke-opacity="0.03"/>
<line x1="68.0801" y1="296" x2="68.0801" y2="-84" stroke="white" stroke-opacity="0.03"/>
<line x1="105" y1="296" x2="105" y2="-84" stroke="white" stroke-opacity="0.03"/>
<line x1="141.92" y1="296" x2="141.92" y2="-84" stroke="white" stroke-opacity="0.03"/>
<line x1="178.84" y1="296" x2="178.84" y2="-84" stroke="white" stroke-opacity="0.03"/>
<path d="M66.6846 166.097C66.6846 166.097 155.783 174.272 137.912 122.328C135.266 116.014 131.109 112.463 121.229 109.752C114.642 107.944 107.151 108.56 98.755 111.599C97.2703 112.188 73.096 122.171 84.1775 140.604C95.61 159.599 66.6846 166.097 66.6846 166.097Z" fill="white" fill-opacity="0.05"/>
<path d="M105.778 104.058C110.84 101.144 116.848 100.697 123.788 102.744C130.741 104.777 135.4 108.355 137.792 113.451L152.645 65.9467L124.747 57.2862C118.503 72.8995 112.175 88.4992 105.778 104.058ZM155.676 150.532L159.487 143.674L166.566 139.839L159.487 136.044L155.676 129.159L151.783 136.044L144.829 139.839L151.783 143.674L155.676 150.532ZM96.2377 68.1423L100.215 60.8778L107.711 56.9067L100.215 52.8679L96.2377 45.6576L92.0934 52.8679L84.6392 56.9067L92.0934 60.8778L96.2377 68.1423ZM67.3666 83.8098L59.7873 97.4986L45.6577 104.98L59.7734 112.488L67.3666 126.177L75.0712 112.488L89.1173 104.98L75.0712 97.4986L67.3666 83.8098Z" fill="white" fill-opacity="0.05"/>
</g>
<rect x="0.5" y="0.5" width="211" height="211" rx="9.5" stroke="#402873"/>
<defs>
<clipPath id="clip0_2060_45133">
<rect width="212" height="212" rx="10" fill="white"/>
</clipPath>
</defs>
</svg>
