<svg width="24" height="24" viewBox="0 0 24 24" fill="none" xmlns="http://www.w3.org/2000/svg">
<path d="M7.02632 3C7.55506 3 8.07863 3.10414 8.56712 3.30649C9.05562 3.50883 9.49947 3.8054 9.87335 4.17928C10.2472 4.55316 10.5438 4.99702 10.7461 5.48551C10.9485 5.97401 11.0526 6.49757 11.0526 7.02632V11.0526H7.02632C5.95847 11.0526 4.93436 10.6284 4.17928 9.87335C3.4242 9.11827 3 8.09416 3 7.02632C3 5.95847 3.4242 4.93436 4.17928 4.17928C4.93436 3.4242 5.95847 3 7.02632 3ZM9.1579 9.15789V7.02632C9.1579 6.60473 9.03288 6.19261 8.79866 5.84207C8.56444 5.49154 8.23153 5.21833 7.84204 5.05699C7.45254 4.89566 7.02395 4.85345 6.61047 4.93569C6.19698 5.01794 5.81717 5.22096 5.51906 5.51906C5.22096 5.81717 5.01794 6.19698 4.9357 6.61046C4.85345 7.02395 4.89566 7.45254 5.05699 7.84204C5.21833 8.23153 5.49154 8.56444 5.84208 8.79866C6.19261 9.03288 6.60473 9.15789 7.02632 9.15789H9.1579ZM7.02632 12.9474H11.0526V16.9737C11.0526 17.77 10.8165 18.5485 10.3741 19.2106C9.93166 19.8727 9.30283 20.3888 8.56712 20.6935C7.83141 20.9983 7.02185 21.078 6.24082 20.9226C5.45979 20.7673 4.74237 20.3838 4.17928 19.8207C3.61619 19.2576 3.23272 18.5402 3.07737 17.7592C2.92201 16.9781 3.00174 16.1686 3.30649 15.4329C3.61123 14.6972 4.12729 14.0683 4.78942 13.6259C5.45154 13.1835 6.22999 12.9474 7.02632 12.9474ZM7.02632 14.8421C6.60473 14.8421 6.19261 14.9671 5.84208 15.2013C5.49154 15.4356 5.21833 15.7685 5.05699 16.158C4.89566 16.5475 4.85345 16.976 4.9357 17.3895C5.01794 17.803 5.22096 18.1828 5.51906 18.4809C5.81717 18.779 6.19698 18.9821 6.61047 19.0643C7.02395 19.1466 7.45254 19.1043 7.84204 18.943C8.23153 18.7817 8.56444 18.5085 8.79866 18.1579C9.03288 17.8074 9.1579 17.3953 9.1579 16.9737V14.8421H7.02632ZM16.9737 3C18.0415 3 19.0656 3.4242 19.8207 4.17928C20.5758 4.93436 21 5.95847 21 7.02632C21 8.09416 20.5758 9.11827 19.8207 9.87335C19.0656 10.6284 18.0415 11.0526 16.9737 11.0526H12.9474V7.02632C12.9474 5.95847 13.3716 4.93436 14.1266 4.17928C14.8817 3.4242 15.9058 3 16.9737 3ZM16.9737 9.15789C17.3953 9.15789 17.8074 9.03288 18.1579 8.79866C18.5085 8.56444 18.7817 8.23153 18.943 7.84204C19.1043 7.45254 19.1466 7.02395 19.0643 6.61046C18.9821 6.19698 18.779 5.81717 18.4809 5.51906C18.1828 5.22096 17.803 5.01794 17.3895 4.93569C16.976 4.85345 16.5475 4.89566 16.158 5.05699C15.7685 5.21833 15.4356 5.49154 15.2013 5.84207C14.9671 6.19261 14.8421 6.60473 14.8421 7.02632V9.15789H16.9737ZM12.9474 12.9474H16.9737C17.77 12.9474 18.5485 13.1835 19.2106 13.6259C19.8727 14.0683 20.3888 14.6972 20.6935 15.4329C20.9983 16.1686 21.078 16.9781 20.9226 17.7592C20.7673 18.5402 20.3838 19.2576 19.8207 19.8207C19.2576 20.3838 18.5402 20.7673 17.7592 20.9226C16.9781 21.078 16.1686 20.9983 15.4329 20.6935C14.6972 20.3888 14.0683 19.8727 13.6259 19.2106C13.1835 18.5485 12.9474 17.77 12.9474 16.9737V12.9474ZM14.8421 14.8421V16.9737C14.8421 17.3953 14.9671 17.8074 15.2013 18.1579C15.4356 18.5085 15.7685 18.7817 16.158 18.943C16.5475 19.1043 16.976 19.1466 17.3895 19.0643C17.803 18.9821 18.1828 18.779 18.4809 18.4809C18.779 18.1828 18.9821 17.803 19.0643 17.3895C19.1466 16.976 19.1043 16.5475 18.943 16.158C18.7817 15.7685 18.5085 15.4356 18.1579 15.2013C17.8074 14.9671 17.3953 14.8421 16.9737 14.8421H14.8421Z" fill="white"/>
</svg>
