<svg width="20" height="20" viewBox="0 0 20 20" fill="none" xmlns="http://www.w3.org/2000/svg">
<path d="M10.8334 9.16657H1.66669C1.44567 9.16657 1.23371 9.25437 1.07743 9.41065C0.921152 9.56693 0.833355 9.77889 0.833355 9.9999V17.4999C0.833355 17.7209 0.921152 17.9329 1.07743 18.0892C1.23371 18.2454 1.44567 18.3332 1.66669 18.3332H10.8334C11.0544 18.3332 11.2663 18.2454 11.4226 18.0892C11.5789 17.9329 11.6667 17.7209 11.6667 17.4999V9.9999C11.6667 9.77889 11.5789 9.56693 11.4226 9.41065C11.2663 9.25437 11.0544 9.16657 10.8334 9.16657ZM6.20002 16.6666L7.80835 15.0582C7.83116 15.0239 7.86212 14.9957 7.89847 14.9761C7.93482 14.9566 7.97543 14.9464 8.01669 14.9464C8.05794 14.9464 8.09856 14.9566 8.13491 14.9761C8.17126 14.9957 8.20222 15.0239 8.22502 15.0582L9.82502 16.6666H6.20002ZM10 14.4832L9.40002 13.8916C9.02634 13.5345 8.52938 13.3352 8.01252 13.3352C7.49566 13.3352 6.9987 13.5345 6.62502 13.8916L3.84169 16.6666H2.50002V10.8332H10V14.4832ZM1.66669 3.4249C1.81131 3.42488 1.95343 3.38722 2.07908 3.31562C2.20474 3.24403 2.3096 3.14097 2.38335 3.01657C2.48932 2.86537 2.54474 2.68452 2.54169 2.4999C2.54183 2.38687 2.51897 2.27499 2.47451 2.17107C2.43005 2.06715 2.36492 1.97336 2.28307 1.89541C2.20122 1.81746 2.10436 1.75697 1.9984 1.71763C1.89244 1.67829 1.77958 1.66092 1.66669 1.66657C1.44567 1.66657 1.23371 1.75437 1.07743 1.91065C0.921152 2.06693 0.833355 2.27889 0.833355 2.4999V2.58324C0.832253 2.69337 0.852995 2.80263 0.89438 2.9047C0.935766 3.00677 0.996974 3.09962 1.07447 3.17789C1.15196 3.25615 1.2442 3.31828 1.34585 3.36068C1.4475 3.40308 1.55655 3.42491 1.66669 3.4249ZM8.25835 3.33324H8.41669C8.6377 3.33324 8.84966 3.24544 9.00594 3.08916C9.16222 2.93288 9.25002 2.72092 9.25002 2.4999C9.25002 2.27889 9.16222 2.06693 9.00594 1.91065C8.84966 1.75437 8.6377 1.66657 8.41669 1.66657H8.25835C8.03734 1.66657 7.82538 1.75437 7.6691 1.91065C7.51282 2.06693 7.42502 2.27889 7.42502 2.4999C7.42502 2.72092 7.51282 2.93288 7.6691 3.08916C7.82538 3.24544 8.03734 3.33324 8.25835 3.33324ZM1.66669 7.31657C1.8877 7.31657 2.09966 7.22877 2.25594 7.07249C2.41222 6.91621 2.50002 6.70425 2.50002 6.48324V6.2999C2.50002 6.07889 2.41222 5.86693 2.25594 5.71065C2.09966 5.55437 1.8877 5.46657 1.66669 5.46657C1.44567 5.46657 1.23371 5.55437 1.07743 5.71065C0.921152 5.86693 0.833355 6.07889 0.833355 6.2999V6.48324C0.833355 6.70425 0.921152 6.91621 1.07743 7.07249C1.23371 7.22877 1.44567 7.31657 1.66669 7.31657ZM11.7417 1.66657H11.5834C11.3623 1.66657 11.1504 1.75437 10.9941 1.91065C10.8378 2.06693 10.75 2.27889 10.75 2.4999C10.75 2.72092 10.8378 2.93288 10.9941 3.08916C11.1504 3.24544 11.3623 3.33324 11.5834 3.33324H11.7417C11.9627 3.33324 12.1747 3.24544 12.3309 3.08916C12.4872 2.93288 12.575 2.72092 12.575 2.4999C12.575 2.27889 12.4872 2.06693 12.3309 1.91065C12.1747 1.75437 11.9627 1.66657 11.7417 1.66657ZM4.92502 3.33324H5.08335C5.30437 3.33324 5.51633 3.24544 5.67261 3.08916C5.82889 2.93288 5.91669 2.72092 5.91669 2.4999C5.91669 2.27889 5.82889 2.06693 5.67261 1.91065C5.51633 1.75437 5.30437 1.66657 5.08335 1.66657H4.92502C4.70401 1.66657 4.49205 1.75437 4.33577 1.91065C4.17949 2.06693 4.09169 2.27889 4.09169 2.4999C4.09169 2.72092 4.17949 2.93288 4.33577 3.08916C4.49205 3.24544 4.70401 3.33324 4.92502 3.33324ZM18.3334 5.33324C18.1123 5.33324 17.9004 5.42103 17.7441 5.57731C17.5878 5.73359 17.5 5.94556 17.5 6.16657V6.34157C17.5 6.56258 17.5878 6.77455 17.7441 6.93083C17.9004 7.08711 18.1123 7.1749 18.3334 7.1749C18.5544 7.1749 18.7663 7.08711 18.9226 6.93083C19.0789 6.77455 19.1667 6.56258 19.1667 6.34157V6.16657C19.1667 5.94556 19.0789 5.73359 18.9226 5.57731C18.7663 5.42103 18.5544 5.33324 18.3334 5.33324ZM14.2667 16.6666H14.0667C13.8457 16.6666 13.6337 16.7544 13.4774 16.9106C13.3212 17.0669 13.2334 17.2789 13.2334 17.4999C13.2334 17.7209 13.3212 17.9329 13.4774 18.0892C13.6337 18.2454 13.8457 18.3332 14.0667 18.3332H14.2667C14.4877 18.3332 14.6997 18.2454 14.8559 18.0892C15.0122 17.9329 15.1 17.7209 15.1 17.4999C15.1 17.2789 15.0122 17.0669 14.8559 16.9106C14.6997 16.7544 14.4877 16.6666 14.2667 16.6666ZM18.25 1.66657C18.0438 1.6873 17.8526 1.78417 17.7139 1.93826C17.5753 2.09235 17.499 2.2926 17.5 2.4999C17.502 2.62125 17.5304 2.7407 17.5834 2.8499C17.6601 3.01453 17.7885 3.14957 17.9491 3.23448C18.1097 3.31938 18.2936 3.3495 18.4728 3.32026C18.6521 3.29101 18.8169 3.20399 18.9422 3.07245C19.0674 2.94091 19.1462 2.77205 19.1667 2.59157V2.4999C19.1477 2.27078 19.0426 2.05737 18.8725 1.90272C18.7023 1.74807 18.4799 1.66368 18.25 1.66657ZM18.3334 9.08324C18.1123 9.08324 17.9004 9.17103 17.7441 9.32731C17.5878 9.48359 17.5 9.69556 17.5 9.91657V10.0999C17.5 10.3209 17.5878 10.5329 17.7441 10.6892C17.9004 10.8454 18.1123 10.9332 18.3334 10.9332C18.5544 10.9332 18.7663 10.8454 18.9226 10.6892C19.0789 10.5329 19.1667 10.3209 19.1667 10.0999V9.91657C19.1667 9.69556 19.0789 9.48359 18.9226 9.32731C18.7663 9.17103 18.5544 9.08324 18.3334 9.08324ZM15.075 1.66657H14.9167C14.6957 1.66657 14.4837 1.75437 14.3274 1.91065C14.1712 2.06693 14.0834 2.27889 14.0834 2.4999C14.0834 2.72092 14.1712 2.93288 14.3274 3.08916C14.4837 3.24544 14.6957 3.33324 14.9167 3.33324H15.075C15.296 3.33324 15.508 3.24544 15.6643 3.08916C15.8206 2.93288 15.9084 2.72092 15.9084 2.4999C15.9084 2.27889 15.8206 2.06693 15.6643 1.91065C15.508 1.75437 15.296 1.66657 15.075 1.66657ZM18.3334 16.6666C18.2053 16.6653 18.0791 16.6969 17.9667 16.7582C17.8277 16.8263 17.7104 16.9318 17.628 17.0628C17.5456 17.1938 17.5013 17.3451 17.5 17.4999C17.5 17.7209 17.5878 17.9329 17.7441 18.0892C17.9004 18.2454 18.1123 18.3332 18.3334 18.3332C18.5625 18.3143 18.7759 18.2091 18.9305 18.039C19.0852 17.8689 19.1696 17.6465 19.1667 17.4166C19.146 17.2103 19.0491 17.0192 18.895 16.8805C18.7409 16.7418 18.5407 16.6655 18.3334 16.6666ZM18.3334 12.8666C18.1123 12.8666 17.9004 12.9544 17.7441 13.1106C17.5878 13.2669 17.5 13.4789 17.5 13.6999V13.8832C17.5 14.1042 17.5878 14.3162 17.7441 14.4725C17.9004 14.6288 18.1123 14.7166 18.3334 14.7166C18.5544 14.7166 18.7663 14.6288 18.9226 14.4725C19.0789 14.3162 19.1667 14.1042 19.1667 13.8832V13.6666C19.1667 13.4456 19.0789 13.2336 18.9226 13.0773C18.7663 12.921 18.5544 12.8332 18.3334 12.8332V12.8666Z" fill="white"/>
</svg>
