<svg width="276" height="118" viewBox="0 0 276 118" fill="none" xmlns="http://www.w3.org/2000/svg">
<g clip-path="url(#clip0_2149_13212)">
<path opacity="0.2" d="M69.7893 30.2003C73.4926 30.2003 76.4552 27.2376 76.4552 23.5344C76.4552 19.8311 73.4926 16.8685 69.7893 16.8685C66.0861 16.8685 63.1234 19.8311 63.1234 23.5344C63.1234 27.1142 66.0861 30.2003 69.7893 30.2003ZM69.7893 20.2014C71.641 20.2014 73.1223 21.6827 73.1223 23.5344C73.1223 25.386 71.641 26.8673 69.7893 26.8673C67.9377 26.8673 66.4564 25.386 66.4564 23.5344C66.4564 21.6827 67.9377 20.2014 69.7893 20.2014ZM80.7757 114.758H64.6048C63.6172 114.758 63 115.375 63 116.363C63 117.351 63.6172 117.968 64.6048 117.968H80.7757C81.7632 117.968 82.3804 117.351 82.3804 116.363C82.3804 115.375 81.7632 114.758 80.7757 114.758ZM208.909 26.3735C206.07 26.3735 203.971 28.4721 203.971 31.3112C203.971 34.1504 206.193 36.2489 208.909 36.2489C211.748 36.2489 213.847 34.1504 213.847 31.3112C213.847 28.4721 211.748 26.3735 208.909 26.3735ZM208.909 32.916C207.921 32.916 207.304 32.2988 207.304 31.3112C207.304 30.3237 207.921 29.7065 208.909 29.7065C209.896 29.7065 210.514 30.3237 210.514 31.3112C210.514 32.2988 209.896 32.916 208.909 32.916ZM83.368 55.6294H81.3929V53.5309C81.3929 52.5433 80.7757 51.9261 79.7882 51.9261C78.8006 51.9261 78.1834 52.5433 78.1834 53.5309V55.5059H76.2083C75.2208 55.5059 74.6036 56.1231 74.6036 57.1107C74.6036 58.0982 75.2208 58.7154 76.2083 58.7154H78.06V60.9374C78.06 61.9249 78.6772 62.5421 79.6647 62.5421C80.6523 62.5421 81.2695 61.9249 81.2695 60.9374V58.9623H83.2445C84.2321 58.9623 84.8493 58.3451 84.8493 57.3576C84.8493 56.37 84.3555 55.6294 83.368 55.6294ZM87.3181 9.09161C87.3181 10.0792 87.9353 10.6964 88.9229 10.6964C89.9104 10.6964 90.5276 10.0792 90.5276 9.09161V7.11654H92.5027C93.4903 7.11654 94.1075 6.49932 94.1075 5.51179C94.1075 4.52425 93.4903 3.90703 92.5027 3.90703H90.5276V1.68507C90.5276 0.697534 89.9104 0.0803223 88.9229 0.0803223C87.9353 0.0803223 87.3181 0.697534 87.3181 1.68507V3.66015H85.3431C84.3555 3.66015 83.7383 4.27736 83.7383 5.2649C83.7383 6.25244 84.3555 6.86965 85.3431 6.86965H87.3181V9.09161ZM204.588 102.167H188.664C189.652 100.809 190.269 98.9576 190.269 97.2295V14.0293C190.269 9.3385 186.566 5.75867 181.998 5.75867H116.697C112.007 5.75867 108.427 9.46194 108.427 14.0293V18.3498H103.119C98.4279 18.3498 94.8481 22.0531 94.8481 26.6204V109.697C94.8481 111.549 95.4653 113.277 96.4529 114.635H89.1698C88.1822 114.635 87.565 115.252 87.565 116.24C87.565 117.227 88.1822 117.844 89.1698 117.844H168.173C172.864 117.844 176.444 114.141 176.444 109.574V105.253H204.588C205.576 105.253 206.193 104.636 206.193 103.648C206.193 102.784 205.576 102.167 204.588 102.167ZM173.234 109.821C173.234 112.66 170.889 114.758 168.296 115.005H161.754L161.63 114.882H102.872C100.033 114.882 97.9342 112.66 97.9342 109.944V26.6204C97.9342 23.7813 100.156 21.6827 102.872 21.6827H168.296C171.135 21.6827 173.234 23.7813 173.234 26.6204V109.821ZM186.813 97.106C186.813 99.9452 184.714 102.044 181.875 102.044H176.814V26.6204C176.814 21.9296 173.111 18.3498 168.543 18.3498H111.76V14.0293C111.76 11.1901 113.982 9.09161 116.697 9.09161H181.752C184.591 9.09161 186.689 11.1901 186.689 14.0293V97.106H186.813Z" fill="white"/>
<path opacity="0.2" d="M156.692 87.9251L132.49 63.7238C132.147 63.3805 132.147 62.6939 132.49 62.3506L135.408 59.4327C135.752 59.0895 136.438 59.0895 136.781 59.4327L160.983 83.8057L161.154 83.9774C162.356 85.1788 162.184 87.0669 160.983 88.0967C160.468 88.6117 159.61 88.9549 158.923 88.9549C157.893 88.9549 157.207 88.6116 156.692 87.9251ZM120.819 77.455C119.789 74.0222 117.043 71.2759 113.61 70.2461C113.438 70.0745 113.267 69.9028 113.267 69.5595C113.267 69.3879 113.438 69.2163 113.61 69.0446C117.043 68.0148 119.789 65.2685 120.819 61.8357C120.819 61.6641 120.991 61.4924 121.162 61.4924C121.505 61.3208 121.849 61.4924 122.02 61.8357C123.05 65.2685 125.796 68.0148 129.229 69.0446C129.401 69.0446 129.573 69.2163 129.573 69.3879C129.744 69.7312 129.573 70.0745 129.229 70.2461C125.796 71.2759 123.05 74.0222 122.02 77.455C121.849 77.6267 121.677 77.7983 121.505 77.7983C120.991 77.7983 120.819 77.6267 120.819 77.455ZM128.199 59.4327L124.938 56.1716C124.423 55.6566 124.423 54.6268 124.938 54.1119L126.998 52.0522C127.513 51.5373 128.543 51.5373 129.058 52.0522L132.319 55.3134C132.662 55.6566 132.662 56.3432 132.319 56.6865L129.401 59.6044C129.229 59.776 128.886 59.9477 128.714 59.9477C128.543 59.776 128.371 59.776 128.199 59.4327ZM143.99 58.0596C142.789 54.1119 139.699 51.194 135.923 49.9925C135.752 49.9925 135.58 49.8209 135.408 49.4776C135.237 49.1343 135.58 48.791 135.923 48.6194C139.871 47.4179 142.789 44.3284 143.99 40.5523C143.99 40.3806 144.162 40.209 144.505 40.0374C144.849 39.8657 145.192 40.209 145.364 40.5523C146.565 44.5 149.655 47.4179 153.431 48.6194C153.602 48.791 153.774 48.9627 153.774 49.3059C153.774 49.6492 153.602 49.8209 153.431 49.9925C149.483 51.194 146.565 54.2835 145.364 58.0596C145.364 58.4029 145.02 58.5745 144.677 58.5745C144.334 58.5745 143.99 58.4029 143.99 58.0596ZM119.274 52.3955C119.103 52.3955 118.931 52.2238 118.931 52.0522C118.244 49.4776 116.185 47.4179 113.61 46.7313C113.438 46.7313 113.438 46.5597 113.267 46.3881C113.267 46.2164 113.267 45.8731 113.61 45.8731C116.185 45.1866 118.244 43.1269 118.931 40.5523C118.931 40.3806 119.103 40.3806 119.274 40.209C119.446 40.209 119.789 40.209 119.789 40.5523C120.476 43.1269 122.535 45.1866 125.11 45.8731C125.282 45.8731 125.282 46.0448 125.453 46.2164C125.453 46.3881 125.453 46.7313 125.11 46.7313C122.535 47.4179 120.476 49.4776 119.789 52.0522C119.617 52.2238 119.446 52.3955 119.274 52.3955Z" fill="white"/>
<g opacity="0.2" filter="url(#filter0_b_2149_13212)">
<path d="M21.4532 82.6186C21.1273 82.013 20.6382 81.5057 20.0367 81.1494C19.4353 80.7931 18.7434 80.6008 18.0331 80.5926L5.44195 80.4481C5.22593 80.4405 5.01952 80.365 4.85404 80.2329C4.68855 80.1008 4.57303 79.9193 4.52499 79.7161C4.47696 79.5128 4.49904 79.2989 4.58787 79.1066C4.67671 78.9144 4.82746 78.7545 5.01724 78.651L16.2111 72.8833C16.8424 72.5582 17.3749 72.0768 17.7533 71.4893C18.1317 70.9018 18.3421 70.2296 18.3628 69.5425L18.7211 57.3574C18.7317 57.1476 18.8129 56.9458 18.9523 56.7828C19.0917 56.6198 19.2817 56.5045 19.4932 56.4545C19.7047 56.4045 19.9262 56.4226 20.1239 56.5059C20.3215 56.5893 20.4845 56.7334 20.5879 56.9162L26.3611 67.6522C26.687 68.2578 27.1761 68.7651 27.7775 69.1214C28.379 69.4777 29.0709 69.67 29.7811 69.6782L42.3719 69.8209C42.5892 69.8269 42.7974 69.9018 42.9643 70.034C43.1313 70.1663 43.2479 70.3487 43.2962 70.5531C43.3445 70.7575 43.3219 70.9728 43.2318 71.1658C43.1417 71.3588 42.9891 71.5189 42.7975 71.6216L31.6027 77.3856C30.9712 77.711 30.4386 78.1926 30.0603 78.7805C29.682 79.3684 29.4717 80.041 29.4514 80.7283L29.0932 92.9134C29.0826 93.1232 29.0014 93.325 28.862 93.488C28.7225 93.651 28.5326 93.7663 28.321 93.8163C28.1095 93.8663 27.888 93.8482 27.6904 93.7649C27.4928 93.6815 27.3298 93.5374 27.2264 93.3546L21.4532 82.6186Z" stroke="white" stroke-linecap="round" stroke-linejoin="round"/>
</g>
<g opacity="0.2" filter="url(#filter1_b_2149_13212)">
<path d="M245.646 28.1265C245.747 27.4463 245.658 26.7472 245.388 26.102C245.119 25.4568 244.68 24.8891 244.115 24.4579L234.108 16.8153C233.939 16.6801 233.819 16.4962 233.765 16.2914C233.711 16.0865 233.727 15.872 233.81 15.6804C233.893 15.4887 234.039 15.3304 234.225 15.2294C234.411 15.1284 234.627 15.0903 234.841 15.1208L247.263 17.1885C247.963 17.3052 248.678 17.2377 249.333 16.9929C249.987 16.7481 250.558 16.335 250.985 15.7965L258.556 6.24235C258.69 6.08053 258.876 5.96731 259.085 5.91997C259.294 5.87262 259.515 5.89374 259.715 5.98011C259.914 6.06648 260.081 6.21336 260.19 6.39833C260.298 6.5833 260.343 6.79622 260.316 7.00459L258.527 19.0623C258.426 19.7426 258.515 20.4417 258.784 21.0869C259.053 21.732 259.493 22.2998 260.057 22.7309L270.066 30.3718C270.236 30.5065 270.358 30.691 270.413 30.8968C270.468 31.1027 270.452 31.3185 270.369 31.5113C270.285 31.7041 270.139 31.8631 269.951 31.964C269.763 32.0649 269.545 32.102 269.33 32.0698L256.91 29.9986C256.21 29.8819 255.495 29.9497 254.84 30.1948C254.185 30.4399 253.615 30.8534 253.188 31.3923L245.616 40.9465C245.483 41.1083 245.297 41.2215 245.088 41.2689C244.878 41.3162 244.657 41.2951 244.458 41.2087C244.258 41.1224 244.092 40.9755 243.983 40.7905C243.874 40.6055 243.83 40.3926 243.856 40.1843L245.646 28.1265Z" stroke="white" stroke-linecap="round" stroke-linejoin="round"/>
</g>
</g>
<defs>
<filter id="filter0_b_2149_13212" x="0.00012207" y="51.9268" width="47.8209" height="46.4172" filterUnits="userSpaceOnUse" color-interpolation-filters="sRGB">
<feFlood flood-opacity="0" result="BackgroundImageFix"/>
<feGaussianBlur in="BackgroundImageFix" stdDeviation="2"/>
<feComposite in2="SourceAlpha" operator="in" result="effect1_backgroundBlur_2149_13212"/>
<feBlend mode="normal" in="SourceGraphic" in2="effect1_backgroundBlur_2149_13212" result="shape"/>
</filter>
<filter id="filter1_b_2149_13212" x="229.234" y="1.39526" width="45.7115" height="44.3982" filterUnits="userSpaceOnUse" color-interpolation-filters="sRGB">
<feFlood flood-opacity="0" result="BackgroundImageFix"/>
<feGaussianBlur in="BackgroundImageFix" stdDeviation="2"/>
<feComposite in2="SourceAlpha" operator="in" result="effect1_backgroundBlur_2149_13212"/>
<feBlend mode="normal" in="SourceGraphic" in2="effect1_backgroundBlur_2149_13212" result="shape"/>
</filter>
<clipPath id="clip0_2149_13212">
<rect width="275.78" height="118" fill="white" transform="translate(0.110107)"/>
</clipPath>
</defs>
</svg>
