<svg width="386" height="82" viewBox="0 0 386 82" fill="none" xmlns="http://www.w3.org/2000/svg">
<g clip-path="url(#clip0_1728_18846)">
<mask id="path-1-inside-1_1728_18846" fill="white">
<path d="M0 4C0 1.79086 1.79086 0 4 0H381.073C383.282 0 385.073 1.79086 385.073 4V78C385.073 80.2091 383.282 82 381.073 82H4.00001C1.79087 82 0 80.2091 0 78V4Z"/>
</mask>
<path d="M0 4C0 1.79086 1.79086 0 4 0H381.073C383.282 0 385.073 1.79086 385.073 4V78C385.073 80.2091 383.282 82 381.073 82H4.00001C1.79087 82 0 80.2091 0 78V4Z" fill="#C9ACFF"/>
<path d="M0 4C0 1.79086 1.79086 0 4 0H381.073C383.282 0 385.073 1.79086 385.073 4V78C385.073 80.2091 383.282 82 381.073 82H4.00001C1.79087 82 0 80.2091 0 78V4Z" fill="#FFB963"/>
<g opacity="0.3">
<path d="M311.61 71.9404C306.234 73.4925 299.728 70.9098 298.101 64.1986C297.704 62.5609 296.926 61.04 295.831 59.7597C294.735 58.4794 293.352 57.4759 291.796 56.8309C290.239 56.1859 288.552 55.9176 286.871 56.0479C285.191 56.1782 283.566 56.7033 282.127 57.5805C272.548 63.4164 261.577 52.4525 267.413 42.8668C268.289 41.4286 268.814 39.804 268.944 38.125C269.073 36.4461 268.805 34.7601 268.161 33.2043C267.517 31.6484 266.515 30.2665 265.236 29.1709C263.957 28.0753 262.438 27.2969 260.801 26.899C249.9 24.2542 249.9 8.74579 260.801 6.10104C262.439 5.70422 263.96 4.9263 265.24 3.83059C266.521 2.73488 267.524 1.35236 268.169 -0.204463C268.814 -1.76128 269.082 -3.4484 268.952 -5.1285C268.822 -6.8086 268.297 -8.4342 267.419 -9.873C261.584 -19.4525 272.548 -30.4226 282.133 -24.5867C288.342 -20.8121 296.388 -24.1522 298.101 -31.1986C300.746 -42.1005 316.254 -42.1005 318.899 -31.1986C319.296 -29.5609 320.074 -28.04 321.169 -26.7597C322.265 -25.4794 323.648 -24.4759 325.204 -23.8309C326.761 -23.1859 328.448 -22.9176 330.129 -23.0479C331.809 -23.1782 333.434 -23.7033 334.873 -24.5805C344.452 -30.4164 355.423 -19.4525 349.587 -9.86679C348.711 -8.4286 348.186 -6.80399 348.056 -5.12503C347.927 -3.44607 348.195 -1.76014 348.839 -0.204267C349.483 1.3516 350.485 2.73351 351.764 3.82912C353.043 4.92473 354.562 5.70312 356.199 6.10104C362.866 7.71521 365.449 14.147 363.971 19.4986M351.958 78.5833V41.3333M351.958 41.3333L370.583 59.9583M351.958 41.3333L333.333 59.9583" stroke="white" stroke-width="6" stroke-linecap="round" stroke-linejoin="round"/>
<path d="M289.875 16.5C289.875 21.4397 291.837 26.177 295.33 29.6699C298.823 33.1627 303.56 35.125 308.5 35.125C313.44 35.125 318.177 33.1627 321.67 29.6699C325.163 26.177 327.125 21.4397 327.125 16.5C327.125 11.5603 325.163 6.823 321.67 3.33013C318.177 -0.162731 313.44 -2.125 308.5 -2.125C303.56 -2.125 298.823 -0.162731 295.33 3.33013C291.837 6.823 289.875 11.5603 289.875 16.5Z" stroke="white" stroke-width="6" stroke-linecap="round" stroke-linejoin="round"/>
</g>
</g>
<path d="M4 1H381.073V-1H4V1ZM384.073 4V78H386.073V4H384.073ZM381.073 81H4.00001V83H381.073V81ZM1 78V4H-1V78H1ZM4.00001 81C2.34315 81 1 79.6569 1 78H-1C-1 80.7614 1.23859 83 4.00001 83V81ZM384.073 78C384.073 79.6569 382.73 81 381.073 81V83C383.835 83 386.073 80.7614 386.073 78H384.073ZM381.073 1C382.73 1 384.073 2.34315 384.073 4H386.073C386.073 1.23857 383.835 -1 381.073 -1V1ZM4 -1C1.23858 -1 -1 1.23858 -1 4H1C1 2.34315 2.34315 1 4 1V-1Z" fill="white" fill-opacity="0.1" mask="url(#path-1-inside-1_1728_18846)"/>
<defs>
<clipPath id="clip0_1728_18846">
<path d="M0 4C0 1.79086 1.79086 0 4 0H381.073C383.282 0 385.073 1.79086 385.073 4V78C385.073 80.2091 383.282 82 381.073 82H4.00001C1.79087 82 0 80.2091 0 78V4Z" fill="white"/>
</clipPath>
</defs>
</svg>
