<svg width="30" height="31" viewBox="0 0 30 31" fill="none" xmlns="http://www.w3.org/2000/svg">
<path d="M8.44444 6.61111C8.44444 6.31643 8.56151 6.03381 8.76988 5.82544C8.97825 5.61706 9.26087 5.5 9.55556 5.5H25.1111C25.4058 5.5 25.6884 5.61706 25.8968 5.82544C26.1052 6.03381 26.2222 6.31643 26.2222 6.61111V19.9444C26.2222 20.2391 26.1052 20.5217 25.8968 20.7301C25.6884 20.9385 25.4058 21.0556 25.1111 21.0556H21.7778V24.3889C21.7778 24.6836 21.6607 24.9662 21.4523 25.1746C21.244 25.3829 20.9614 25.5 20.6667 25.5H5.11111C4.81643 25.5 4.53381 25.3829 4.32544 25.1746C4.11706 24.9662 4 24.6836 4 24.3889V11.0556C4 10.7609 4.11706 10.4783 4.32544 10.2699C4.53381 10.0615 4.81643 9.94444 5.11111 9.94444H8.44444V6.61111ZM10.6667 9.94444H20.6667C20.9614 9.94444 21.244 10.0615 21.4523 10.2699C21.6607 10.4783 21.7778 10.7609 21.7778 11.0556V18.8333H24V7.72222H10.6667V9.94444ZM19.5556 19.6556V12.1667H6.22222V22.8689L14.5456 15.1L19.5556 19.6556ZM9.55556 17.1667C9.99758 17.1667 10.4215 16.9911 10.7341 16.6785C11.0466 16.366 11.2222 15.942 11.2222 15.5C11.2222 15.058 11.0466 14.634 10.7341 14.3215C10.4215 14.0089 9.99758 13.8333 9.55556 13.8333C9.11353 13.8333 8.6896 14.0089 8.37704 14.3215C8.06448 14.634 7.88889 15.058 7.88889 15.5C7.88889 15.942 8.06448 16.366 8.37704 16.6785C8.6896 16.9911 9.11353 17.1667 9.55556 17.1667Z" fill="black"/>
</svg>
