<svg width="386" height="82" viewBox="0 0 386 82" fill="none" xmlns="http://www.w3.org/2000/svg">
<g clip-path="url(#clip0_499_32893)">
<mask id="path-1-inside-1_499_32893" fill="white">
<path d="M0.92688 4C0.92688 1.79086 2.71774 0 4.92688 0H382C384.209 0 386 1.79086 386 4V78C386 80.2091 384.209 82 382 82H4.92689C2.71775 82 0.92688 80.2091 0.92688 78V4Z"/>
</mask>
<path d="M0.92688 4C0.92688 1.79086 2.71774 0 4.92688 0H382C384.209 0 386 1.79086 386 4V78C386 80.2091 384.209 82 382 82H4.92689C2.71775 82 0.92688 80.2091 0.92688 78V4Z" fill="#C9ACFF"/>
<g opacity="0.3">
<path d="M326.128 9.05001H335.574C336.562 9.05001 337.51 9.44246 338.208 10.141C338.907 10.8396 339.299 11.7871 339.299 12.775C339.299 13.7629 338.907 14.7104 338.208 15.409C337.51 16.1076 336.562 16.5 335.574 16.5H283.424C282.436 16.5 281.489 16.1076 280.79 15.409C280.092 14.7104 279.699 13.7629 279.699 12.775C279.699 11.7871 280.092 10.8396 280.79 10.141C281.489 9.44246 282.436 9.05001 283.424 9.05001H289.064C288.01 7.88041 287.353 6.40681 287.188 4.84077C287.024 3.27474 287.359 1.6968 288.147 0.333511L306.772 -31.925C307.76 -33.636 309.388 -34.8846 311.296 -35.3959C313.205 -35.9073 315.238 -35.6396 316.949 -34.6517L336.304 -23.4767C338.015 -22.4887 339.264 -20.8615 339.775 -18.953C340.287 -17.0445 340.019 -15.0111 339.031 -13.3L326.128 9.05001ZM332.579 -17.025L313.224 -28.2L294.599 4.05851L303.241 9.05001H317.53L332.579 -17.025ZM339.001 1.60001L343.3 -5.84999C344.41 -5.80831 345.496 -5.5191 346.479 -5.00349C347.463 -4.48789 348.319 -3.75895 348.984 -2.86999L367.609 21.9609C368.576 23.2504 369.099 24.8189 369.099 26.4309V61.2C369.099 63.1759 368.314 65.0708 366.917 66.468C365.52 67.8651 363.625 68.65 361.649 68.65H257.349C255.373 68.65 253.478 67.8651 252.081 66.468C250.684 65.0708 249.899 63.1759 249.899 61.2V26.4309C249.899 24.8189 250.422 23.2504 251.389 21.9609L270.014 -2.86999C270.708 -3.79525 271.608 -4.54623 272.642 -5.06347C273.677 -5.58071 274.818 -5.84999 275.974 -5.84999H283.149L279.58 0.333511C279.347 0.736599 279.153 1.16062 278.999 1.60001H275.974L259.212 23.95H359.787L343.024 1.60001H339.001ZM257.349 61.2H361.649V31.4H257.349V61.2Z" fill="white"/>
</g>
</g>
<path d="M4.92688 1H382V-1H4.92688V1ZM385 4V78H387V4H385ZM382 81H4.92689V83H382V81ZM1.92688 78V4H-0.0731201V78H1.92688ZM4.92689 81C3.27003 81 1.92688 79.6569 1.92688 78H-0.0731201C-0.0731201 80.7614 2.16547 83 4.92689 83V81ZM385 78C385 79.6569 383.657 81 382 81V83C384.761 83 387 80.7614 387 78H385ZM382 1C383.657 1 385 2.34315 385 4H387C387 1.23857 384.761 -1 382 -1V1ZM4.92688 -1C2.16546 -1 -0.0731201 1.23858 -0.0731201 4H1.92688C1.92688 2.34315 3.27003 1 4.92688 1V-1Z" fill="white" fill-opacity="0.1" mask="url(#path-1-inside-1_499_32893)"/>
<defs>
<clipPath id="clip0_499_32893">
<path d="M0.92688 4C0.92688 1.79086 2.71774 0 4.92688 0H382C384.209 0 386 1.79086 386 4V78C386 80.2091 384.209 82 382 82H4.92689C2.71775 82 0.92688 80.2091 0.92688 78V4Z" fill="white"/>
</clipPath>
</defs>
</svg>
